<svg xmlns="http://www.w3.org/2000/svg" width="1706.667" height="1322.667" version="1.0" viewBox="0 0 1280 992"><path d="M1160.6 76c-25.9 5.5-57 20.9-88.6 43.7-49.8 36-106.7 91-160.4 155.3-36 43.1-72.5 91.8-105.4 140.7-5.3 7.9-9.8 14.3-10.2 14.3-.3 0-7.1-3.6-15-8.1-83-46.2-172.6-76.1-256-85.4-71.4-7.9-130.3-1.4-173 19.1-29 13.9-50.6 33.5-62.4 56.4-9.2 17.9-12 31.8-11.3 54.9.4 14.4.9 18.2 3.6 28.6 7 26.4 24.5 54.1 47 74.3 45.7 40.9 109 70.1 192.1 88.6 21.7 4.8 54.7 10.7 71.8 12.7 5.6.7 10.2 1.6 10.2 2 0 1-35.1 34.6-47.5 45.4-75.3 65.7-148.1 103.6-212.4 110.6-12.6 1.3-44 .8-58.1-1.1-32-4.1-59.5-13.7-81.8-28.3-23.2-15.2-35.6-32.4-37.8-52.3-.8-7.6 1-21.8 3.8-29.1 7.9-21.2 29.8-35.9 59.7-39.8 38.7-5.2 76.9 2.6 136.6 27.8l12.9 5.5 5.1-1.5c7.5-2.2 9.3-3.8 13-11.4 3.6-7.5 3.6-8.5 0-18.4-1.4-3.8-2.4-4.6-13.8-10.7-37.3-20.3-79.4-33.8-122.7-39.3-19.5-2.6-52.6-3.1-69.5-1.1-59.5 6.9-99 34.6-110.7 77.8-3.1 11.3-3.3 34.5-.4 45.8 7.1 27.9 24.5 49.9 56.4 71.3 33.1 22.2 76.8 37.4 125.8 43.7 74.5 9.6 148.1-.4 223.9-30.3 20.7-8.2 58.6-26.8 79-38.7 48.2-28.3 99-67.4 143-110.1l12-11.6 37-.6c37.8-.7 50.7-1.4 70-4.3 12.8-1.9 14.8-2.8 19.9-8.4 3.6-4 3.7-4.3 3.1-9.8-1.4-12.8-1.5-13-5.8-16.6-7.1-5.7-6.5-5.6-31.3-4.6-34.9 1.4-52.4 1.8-52.4 1.1 0-.3 4.6-6.2 10.1-13.1 20-24.6 47.3-61.4 68.3-91.7l7.7-11.2 8.7 5.5c20.7 13.4 61.7 43.5 78.7 58l4.8 4-3.1 14c-7.2 32.3-9.7 56-8.9 83.4 1.6 54.6 17.5 100.4 48 138.5 7.7 9.5 25.9 27.3 37.7 36.8 11.6 9.3 31 22.3 39.5 26.3 20.8 10 31-1.1 36.1-39.6 2.4-17.9 2.5-67.6.1-85.2-7.9-58.9-28.4-108.1-66.1-158.5-4.2-5.6-7.6-10.6-7.6-11.2 0-1.4 23.6-63.9 43.7-115.6 21.8-56.1 55-139 82.8-206.5 37.5-91.2 57.9-143.1 63.5-161.9 4.2-13.7 1.2-25.3-7.7-29.7-5.6-2.8-23.7-3-35.7-.4zm-75.1 105.8c-15 27.9-37.4 77.8-55 122.2-23.1 58.4-44.8 120.6-78.4 224.7l-2.6 8.2-12-9.1c-6.6-4.9-23-16.9-36.5-26.4-13.5-9.6-25.7-18.5-27.2-19.7l-2.7-2.2 12-19.5c36.4-58.9 53.1-85.2 79.4-125 49-73.9 86.2-122.8 120.9-158.8 4.9-5.1 9.1-9.1 9.3-8.8.2.2-3 6.6-7.2 14.4zM544 383c64.5 8.5 135.2 34 212.3 76.6 9.5 5.2 13.7 8 13.3 9-.3.7-7.6 11.1-16.2 23.1C707 555.8 674.2 597.2 649 623.3l-9.5 9.9-7-.7c-48.9-4.5-92.4-11.9-126.1-21.4-66.3-18.8-115.6-47.3-141.2-81.6-5.4-7.3-13.4-23.6-15.8-32.5-2.6-9.3-2.6-34.1-.1-42.4 4.7-15.3 14.3-29.2 27.6-39.8 23.7-18.9 54.6-29.7 96.6-33.7 15.5-1.5 52.5-.5 70.5 1.9zm464.4 276.7c13.8 20.7 22.5 42.3 26.3 64.8 2.4 14.9 2.4 44.6-.1 59.9-1.5 9.5-6.7 29.3-8.3 31.9-.7 1.1-5.4-3.4-10.9-10.5-9.8-12.7-17.1-30.4-20.5-49.8-2.6-14.9-3.6-44-2-62 1.3-14.8 6.1-46 7.1-46 .3 0 4.1 5.3 8.4 11.7z"/></svg>
